<svg width="84" height="84" viewBox="0 0 84 84" fill="none" xmlns="http://www.w3.org/2000/svg">
<path d="M24 60H30V66H24V60Z" fill="#EC5729"/>
<path d="M24 60H30V66H24V60Z" fill="#EC5729"/>
<path d="M60 60H54V66H60V60Z" fill="#EC5729"/>
<path d="M30 54V60H54V54H30Z" fill="#EC5729"/>
<path d="M30 36H24V24H30V36Z" fill="#EC5729"/>
<path d="M54 36H60V24H54V36Z" fill="#EC5729"/>
<path d="M24 0V6H60V0H24Z" fill="#EC5729"/>
<path d="M12 6V12H24V6H12Z" fill="#EC5729"/>
<path d="M6 24H12V12H6L6 24Z" fill="#EC5729"/>
<path d="M0 60H6V24H0V60Z" fill="#EC5729"/>
<path d="M12 60H6V72H12V60Z" fill="#EC5729"/>
<path d="M12 72V78H24V72H12Z" fill="#EC5729"/>
<path d="M24 78V84H60V78H24Z" fill="#EC5729"/>
<path d="M72 78V72H60V78H72Z" fill="#EC5729"/>
<path d="M78 60H72V72H78V60Z" fill="#EC5729"/>
<path d="M78 60H84V24H78V60Z" fill="#EC5729"/>
<path d="M72 24H78V12H72V24Z" fill="#EC5729"/>
<path d="M72 12V6H60V12H72Z" fill="#EC5729"/>
</svg>
