<svg width="125" height="34" viewBox="0 0 125 34" fill="none" xmlns="http://www.w3.org/2000/svg">
<path d="M16.9523 0C33.9045 0 33.9045 7.61178 33.9045 17C33.9045 26.3882 33.2378 34 16.9523 34C0.666758 34 0 26.3882 0 17C0 7.61178 -0.00151429 0 16.9523 0ZM18.7222 11.6616C18.3312 11.5354 18.06 11.1814 18.0236 10.7726C17.8448 8.76821 17.3841 7.33977 16.8432 7.33977C16.3022 7.33977 15.84 8.76821 15.6627 10.7726C15.6263 11.1829 15.3536 11.537 14.9641 11.6616C14.2443 11.8926 13.7822 12.2527 13.7822 12.6584C13.7822 13.0642 14.2489 13.4274 14.9717 13.6584C15.3611 13.783 15.6324 14.1355 15.6718 14.5428C15.8567 16.4985 16.3113 17.8829 16.8447 17.8829C17.3781 17.8829 17.8327 16.4985 18.0176 14.5428C18.0555 14.134 18.3282 13.7814 18.7177 13.6584C19.442 13.4274 19.9072 13.0657 19.9072 12.6584C19.9072 12.2512 19.445 11.8926 18.7252 11.6616H18.7222ZM23.829 14.5428C24.0138 16.4985 24.4684 17.8829 25.0018 17.8829C25.5352 17.8829 25.9898 16.4985 26.1747 14.5428C26.2126 14.134 26.4854 13.7814 26.8748 13.6584C27.5992 13.4274 28.0644 13.0657 28.0644 12.6584C28.0644 12.2512 27.6022 11.8926 26.8824 11.6616C26.4914 11.5354 26.2202 11.1814 26.1838 10.7726C26.005 8.76821 25.5443 7.33977 25.0033 7.33977C24.4624 7.33977 24.0002 8.76821 23.8229 10.7726C23.7865 11.1829 23.5138 11.537 23.1243 11.6616C22.4045 11.8926 21.9423 12.2527 21.9423 12.6584C21.9423 13.0642 22.4091 13.4274 23.1319 13.6584C23.5213 13.783 23.7926 14.1355 23.832 14.5428H23.829ZM16.8417 28.1981C20.0739 28.1981 22.6955 25.133 22.6955 21.3507C22.6955 17.5683 20.0754 21.3507 16.8417 21.3507C13.6079 21.3507 10.9878 17.5699 10.9878 21.3507C10.9878 25.1315 13.6079 28.1981 16.8417 28.1981ZM6.81 13.6568C7.19945 13.7814 7.4707 14.134 7.5101 14.5413C7.69497 16.497 8.14958 17.8814 8.68298 17.8814C9.21639 17.8814 9.67099 16.497 9.85587 14.5413C9.89375 14.1325 10.1665 13.7799 10.556 13.6568C11.2803 13.4259 11.7455 13.0642 11.7455 12.6569C11.7455 12.2497 11.2833 11.891 10.5635 11.6601C10.1726 11.5339 9.90133 11.1799 9.86496 10.7711C9.68615 8.76669 9.22548 7.33825 8.6845 7.33825C8.14352 7.33825 7.68133 8.76669 7.50404 10.7711C7.46767 11.1814 7.1949 11.5354 6.80546 11.6601C6.08566 11.891 5.62348 12.2512 5.62348 12.6569C5.62348 13.0627 6.09021 13.4259 6.81304 13.6568H6.81Z" fill="#F1F1F1"/>
<path d="M42.1689 26.0034V9.49316C42.1689 8.6029 42.4735 7.83404 43.0827 7.18658C43.7108 6.53912 44.4627 6.21539 45.3384 6.21539C45.9856 6.21539 46.5757 6.40761 47.1087 6.79204C47.6417 7.17647 48.0129 7.67218 48.2223 8.27917L53.6475 22.3311L59.0726 8.30952C59.301 7.70253 59.6818 7.20682 60.2148 6.82239C60.7478 6.41772 61.3379 6.21539 61.9851 6.21539C62.8417 6.21539 63.5746 6.53912 64.1837 7.18658C64.7928 7.83404 65.0974 8.6029 65.0974 9.49316V26.0034C65.0974 26.6306 64.8975 27.1567 64.4978 27.5816C64.1171 27.9862 63.6317 28.1886 63.0416 28.1886C62.4514 28.1886 61.9565 27.9862 61.5568 27.5816C61.1761 27.1567 60.9857 26.6306 60.9857 26.0034V13.0744L55.5605 26.8532C55.4083 27.2376 55.1513 27.5613 54.7896 27.8244C54.4279 28.0672 54.0377 28.1886 53.6189 28.1886C53.1811 28.1886 52.7813 28.0672 52.4197 27.8244C52.058 27.5613 51.801 27.2376 51.6487 26.8532L46.195 13.0744V26.0034C46.195 26.6306 46.0046 27.1567 45.6239 27.5816C45.2622 27.9862 44.7863 28.1886 44.1962 28.1886C43.6252 28.1886 43.1398 27.9862 42.74 27.5816C42.3593 27.1567 42.1689 26.6306 42.1689 26.0034Z" fill="#F1F1F1"/>
<path d="M67.2478 8.12742C67.2478 7.47996 67.4668 6.94379 67.9046 6.51889C68.3424 6.07376 68.8754 5.8512 69.5036 5.8512C70.1317 5.8512 70.6647 6.07376 71.1026 6.51889C71.5404 6.94379 71.7593 7.47996 71.7593 8.12742C71.7593 8.75465 71.5404 9.29083 71.1026 9.73596C70.6647 10.1609 70.1317 10.3733 69.5036 10.3733C68.8754 10.3733 68.3424 10.1609 67.9046 9.73596C67.4668 9.29083 67.2478 8.75465 67.2478 8.12742ZM71.0169 27.5512C70.6172 27.9761 70.1222 28.1886 69.5321 28.1886C68.942 28.1886 68.4471 27.9761 68.0473 27.5512C67.6476 27.1263 67.4477 26.5902 67.4477 25.9427V14.2277C67.4477 13.5803 67.6476 13.0441 68.0473 12.6192C68.4471 12.1943 68.942 11.9818 69.5321 11.9818C70.1222 11.9818 70.6172 12.1943 71.0169 12.6192C71.4167 13.0441 71.6165 13.5803 71.6165 14.2277V25.9427C71.6165 26.5902 71.4167 27.1263 71.0169 27.5512Z" fill="#F1F1F1"/>
<path d="M82.4263 11.7997C84.1204 11.7997 85.4529 12.3359 86.4237 13.4083C87.3946 14.4604 87.88 15.9273 87.88 17.809V25.9427C87.88 26.5902 87.6801 27.1263 87.2803 27.5512C86.8996 27.9761 86.4047 28.1886 85.7956 28.1886C85.2055 28.1886 84.7105 27.9761 84.3108 27.5512C83.911 27.1263 83.7112 26.5902 83.7112 25.9427V18.8409C83.7112 16.4736 82.7784 15.29 80.9129 15.29C79.9611 15.29 79.2092 15.6339 78.6572 16.3218C78.1052 17.0098 77.8291 18.0619 77.8291 19.4782V25.9427C77.8291 26.5902 77.6293 27.1263 77.2295 27.5512C76.8298 27.9761 76.3348 28.1886 75.7447 28.1886C75.1546 28.1886 74.6597 27.9761 74.26 27.5512C73.8602 27.1263 73.6603 26.5902 73.6603 25.9427V14.1367C73.6603 13.5297 73.8507 13.0238 74.2314 12.6192C74.6121 12.1943 75.0975 11.9818 75.6876 11.9818C76.2587 11.9818 76.7346 12.1943 77.1153 12.6192C77.496 13.0238 77.6864 13.5297 77.6864 14.1367V14.7437C78.1052 13.8332 78.7238 13.1149 79.5424 12.5888C80.3799 12.0628 81.3412 11.7997 82.4263 11.7997Z" fill="#F1F1F1"/>
<path d="M98.7363 26.2765C98.7363 26.7419 98.584 27.1365 98.2795 27.4602C97.9749 27.7839 97.5942 27.966 97.1373 28.0065C96.7376 28.0672 96.157 28.0975 95.3956 28.0975C92.3499 28.0975 90.827 26.4485 90.827 23.1505V15.381H89.9418C89.504 15.381 89.1328 15.2293 88.8283 14.9258C88.5237 14.602 88.3714 14.2176 88.3714 13.7725C88.3714 13.3273 88.5237 12.953 88.8283 12.6495C89.1328 12.3258 89.504 12.1639 89.9418 12.1639H90.827V10.1305C90.827 9.48304 91.0269 8.94686 91.4266 8.52197C91.8264 8.09707 92.3213 7.88463 92.9114 7.88463C93.5015 7.88463 93.9964 8.09707 94.3962 8.52197C94.7959 8.94686 94.9958 9.48304 94.9958 10.1305V12.1639H97.1088C97.5466 12.1639 97.9083 12.3157 98.1938 12.6192C98.4984 12.9227 98.6507 13.3071 98.6507 13.7725C98.6507 14.2378 98.4984 14.6223 98.1938 14.9258C97.9083 15.2293 97.5466 15.381 97.1088 15.381H94.9958V22.6042C94.9958 23.3326 95.0815 23.8486 95.2528 24.1521C95.4432 24.4353 95.7953 24.577 96.3093 24.577C96.6519 24.577 96.8899 24.5668 97.0231 24.5466C97.48 24.5061 97.8797 24.6579 98.2224 25.0019C98.565 25.3458 98.7363 25.7707 98.7363 26.2765Z" fill="#F1F1F1"/>
<path d="M106.243 11.7997C108.356 11.7997 110.069 12.4877 111.382 13.8635C112.715 15.2191 113.438 17.0199 113.552 19.2658V19.3265C113.552 19.8121 113.39 20.2268 113.067 20.5708C112.743 20.9148 112.343 21.0867 111.868 21.0867H102.788C102.997 23.8182 104.263 25.184 106.585 25.184C107.994 25.184 109.088 24.6377 109.869 23.5451C110.192 23.1404 110.602 22.9381 111.097 22.9381C111.592 22.9381 112.01 23.1202 112.353 23.4844C112.715 23.8486 112.896 24.2937 112.896 24.8198C112.896 25.447 112.562 26.0337 111.896 26.58C110.564 27.7738 108.793 28.3707 106.585 28.3707C104.206 28.3707 102.293 27.6119 100.846 26.0944C99.4183 24.577 98.7044 22.5435 98.7044 19.9942C98.7044 17.5459 99.3992 15.5732 100.789 14.076C102.178 12.5585 103.996 11.7997 106.243 11.7997ZM102.816 18.5374H109.583C109.564 17.4245 109.26 16.5444 108.67 15.8969C108.079 15.2495 107.28 14.9258 106.271 14.9258C104.329 14.9258 103.178 16.1296 102.816 18.5374Z" fill="#F1F1F1"/>
<path d="M123.077 11.9211C123.61 11.9211 124.057 12.1235 124.419 12.5281C124.78 12.9328 124.961 13.4184 124.961 13.9849C124.961 14.5514 124.771 15.037 124.39 15.4417C124.009 15.8261 123.553 16.0183 123.02 16.0183H122.705C121.716 16.0183 120.878 16.4635 120.193 17.3537C119.507 18.2238 119.165 19.377 119.165 20.8136V25.9123C119.165 26.5598 118.965 27.1061 118.565 27.5512C118.165 27.9761 117.67 28.1886 117.08 28.1886C116.49 28.1886 115.995 27.9761 115.596 27.5512C115.196 27.1061 114.996 26.5598 114.996 25.9123V14.1367C114.996 13.5297 115.186 13.0238 115.567 12.6192C115.948 12.1943 116.433 11.9818 117.023 11.9818C117.594 11.9818 118.07 12.1943 118.451 12.6192C118.832 13.0238 119.022 13.5297 119.022 14.1367V15.4417C119.289 14.3491 119.736 13.4892 120.364 12.862C121.011 12.2347 121.811 11.9211 122.763 11.9211H123.077Z" fill="#F1F1F1"/>
</svg>
