<svg width="80" height="80" viewBox="0 0 80 80" fill="none" xmlns="http://www.w3.org/2000/svg">
<path d="M22.8571 51.4286H28.5714V57.1429H22.8571V51.4286Z" fill="#EC5729"/>
<path d="M57.1429 51.4286H51.4286V57.1429H57.1429V51.4286Z" fill="#EC5729"/>
<path d="M22.8571 22.8571H28.5714V28.5714H22.8571V22.8571Z" fill="#EC5729"/>
<path d="M57.1429 22.8571H51.4286V28.5714H57.1429V22.8571Z" fill="#EC5729"/>
<path d="M28.5714 28.5714H34.2857V34.2857H28.5714V28.5714Z" fill="#EC5729"/>
<path d="M51.4286 28.5714H45.7143V34.2857H51.4286V28.5714Z" fill="#EC5729"/>
<path d="M17.1429 28.5714H22.8571V34.2857H17.1429V28.5714Z" fill="#EC5729"/>
<path d="M62.8571 28.5714H57.1429V34.2857H62.8571V28.5714Z" fill="#EC5729"/>
<path d="M22.8571 74.2857V80H57.1429V74.2857H22.8571Z" fill="#EC5729"/>
<path d="M51.4286 62.8571V57.1429H28.5714V62.8571H51.4286Z" fill="#EC5729"/>
<path d="M11.4286 68.5714V74.2857H22.8571V68.5714H11.4286Z" fill="#EC5729"/>
<path d="M11.4286 57.1429H5.71429V68.5714H11.4286V57.1429Z" fill="#EC5729"/>
<path d="M0 57.1429H5.71429V22.8571H0V57.1429Z" fill="#EC5729"/>
<path d="M5.71429 22.8571H11.4286V11.4286H5.71429L5.71429 22.8571Z" fill="#EC5729"/>
<path d="M11.4286 5.71429V11.4286H22.8571V5.71429H11.4286Z" fill="#EC5729"/>
<path d="M22.8571 0V5.71429H57.1429V0H22.8571Z" fill="#EC5729"/>
<path d="M68.5714 11.4286V5.71429H57.1429V11.4286H68.5714Z" fill="#EC5729"/>
<path d="M68.5714 22.8571H74.2857V11.4286H68.5714V22.8571Z" fill="#EC5729"/>
<path d="M74.2857 57.1429H80V22.8571H74.2857V57.1429Z" fill="#EC5729"/>
<path d="M74.2857 57.1429H68.5714V68.5714H74.2857V57.1429Z" fill="#EC5729"/>
<path d="M68.5714 74.2857V68.5714H57.1429V74.2857H68.5714Z" fill="#EC5729"/>
</svg>
