<svg width="32" height="32" viewBox="0 0 32 32" fill="none" xmlns="http://www.w3.org/2000/svg">
<path d="M18.6667 6.66634H17.3334V7.99967H18.6667V6.66634Z" fill="white"/>
<path d="M13.3334 7.99967H12V9.33301H13.3334V7.99967Z" fill="white"/>
<path d="M14.6667 6.66634H13.3334V7.99967H14.6667V6.66634Z" fill="white"/>
<path d="M20 7.99967H18.6667V9.33301H20V7.99967Z" fill="white"/>
<path d="M17.3334 25.333H18.6667V22.6663H17.3334V25.333Z" fill="white"/>
<path d="M14.6667 22.6663H13.3334V25.333H14.6667V22.6663Z" fill="white"/>
<path d="M14.6667 21.333V22.6663H17.3334V21.333H14.6667Z" fill="white"/>
<path d="M14.6667 25.333V26.6663H17.3334V25.333H14.6667Z" fill="white"/>
<path d="M14.6667 18.6663V19.9997H17.3334V18.6663H14.6667Z" fill="white"/>
<path d="M14.6667 15.9997H13.3334V18.6663H14.6667V15.9997Z" fill="white"/>
<path d="M13.3334 13.333H12V15.9997H13.3334V13.333Z" fill="white"/>
<path d="M10.6667 13.333H12V9.33301H10.6667V13.333Z" fill="white"/>
<path d="M14.6667 5.33301V6.66634H17.3334V5.33301H14.6667Z" fill="white"/>
<path d="M20 13.333H21.3334V9.33301H20V13.333Z" fill="white"/>
<path d="M20 13.333H18.6667V15.9997H20V13.333Z" fill="white"/>
<path d="M17.3334 18.6663H18.6667V15.9997H17.3334V18.6663Z" fill="white"/>
</svg>
