<svg width="24" height="24" viewBox="0 0 24 24" fill="none" xmlns="http://www.w3.org/2000/svg">
<path d="M21 18.4287H18.4286V21.0001H21V18.4287Z" fill="#FF2828"/>
<path d="M13.2859 10.7148H10.7144V13.2863H13.2859V10.7148Z" fill="#FF2828"/>
<path d="M10.7144 13.2852H8.14294V15.8566H10.7144V13.2852Z" fill="#FF2828"/>
<path d="M8.14291 15.8574H5.57147V18.4289H8.14291V15.8574Z" fill="#FF2828"/>
<path d="M5.57144 18.4287H3V21.0001H5.57144V18.4287Z" fill="#FF2828"/>
<path d="M15.857 8.14258H13.2856V10.714H15.857V8.14258Z" fill="#FF2828"/>
<path d="M18.4286 5.57129H15.8571V8.14272H18.4286V5.57129Z" fill="#FF2828"/>
<path d="M21 3H18.4286V5.57144H21V3Z" fill="#FF2828"/>
<path d="M15.857 13.2852H13.2856V15.8566H15.857V13.2852Z" fill="#FF2828"/>
<path d="M18.4286 15.8574H15.8571V18.4289H18.4286V15.8574Z" fill="#FF2828"/>
<path d="M10.7144 8.14258H8.14294V10.714H10.7144V8.14258Z" fill="#FF2828"/>
<path d="M5.57144 3H3V5.57144H5.57144V3Z" fill="#FF2828"/>
<path d="M8.14291 5.57129H5.57147V8.14272H8.14291V5.57129Z" fill="#FF2828"/>
</svg>
