<svg width="55" height="55" viewBox="0 0 55 55" fill="none" xmlns="http://www.w3.org/2000/svg">
<g clip-path="url(#clip0_255_2176)">
<path d="M27.1321 0.44873C54.2641 0.44873 54.2641 12.6314 54.2641 27.6572C54.2641 42.683 53.197 54.8656 27.1321 54.8656C1.06714 54.8656 0 42.683 0 27.6572C0 12.6314 -0.00242424 0.44873 27.1321 0.44873ZM29.9648 19.113C29.3391 18.9112 28.905 18.3445 28.8468 17.6902C28.5606 14.4822 27.8233 12.196 26.9574 12.196C26.0916 12.196 25.3519 14.4822 25.0681 17.6902C25.0099 18.3469 24.5734 18.9136 23.95 19.113C22.798 19.4827 22.0583 20.0591 22.0583 20.7085C22.0583 21.3579 22.8053 21.9392 23.9622 22.3089C24.5855 22.5083 25.0196 23.0726 25.0827 23.7244C25.3786 26.8546 26.1062 29.0703 26.9599 29.0703C27.8136 29.0703 28.5412 26.8546 28.8371 23.7244C28.8977 23.0701 29.3343 22.5059 29.9576 22.3089C31.1169 21.9392 31.8614 21.3603 31.8614 20.7085C31.8614 20.0567 31.1217 19.4827 29.9697 19.113H29.9648ZM38.1382 23.7244C38.4341 26.8546 39.1617 29.0703 40.0154 29.0703C40.8691 29.0703 41.5967 26.8546 41.8926 23.7244C41.9532 23.0701 42.3898 22.5059 43.0131 22.3089C44.1724 21.9392 44.9169 21.3603 44.9169 20.7085C44.9169 20.0567 44.1772 19.4827 43.0252 19.113C42.3995 18.9112 41.9653 18.3445 41.9071 17.6902C41.6209 14.4822 40.8836 12.196 40.0178 12.196C39.152 12.196 38.4122 14.4822 38.1285 17.6902C38.0703 18.3469 37.6337 18.9136 37.0104 19.113C35.8584 19.4827 35.1187 20.0591 35.1187 20.7085C35.1187 21.3579 35.8656 21.9392 37.0225 22.3089C37.6458 22.5083 38.08 23.0726 38.143 23.7244H38.1382ZM26.955 45.5797C32.1282 45.5797 36.324 40.674 36.324 34.6204C36.324 28.5668 32.1307 34.6204 26.955 34.6204C21.7794 34.6204 17.586 28.5692 17.586 34.6204C17.586 40.6716 21.7794 45.5797 26.955 45.5797ZM10.8994 22.3065C11.5227 22.5059 11.9568 23.0701 12.0199 23.722C12.3158 26.8521 13.0434 29.0678 13.8971 29.0678C14.7508 29.0678 15.4784 26.8521 15.7743 23.722C15.8349 23.0677 16.2715 22.5035 16.8948 22.3065C18.0541 21.9368 18.7987 21.3579 18.7987 20.7061C18.7987 20.0543 18.0589 19.4803 16.9069 19.1106C16.2812 18.9087 15.8471 18.3421 15.7888 17.6878C15.5027 14.4798 14.7654 12.1936 13.8995 12.1936C13.0337 12.1936 12.294 14.4798 12.0102 17.6878C11.952 18.3445 11.5154 18.9112 10.8921 19.1106C9.74009 19.4803 9.00037 20.0567 9.00037 20.7061C9.00037 21.3555 9.74737 21.9368 10.9042 22.3065H10.8994Z" fill="#FF7A00"/>
</g>
<defs>
<clipPath id="clip0_255_2176">
<rect width="55" height="55" fill="white"/>
</clipPath>
</defs>
</svg>
