<svg width="32" height="32" viewBox="0 0 32 32" fill="none" xmlns="http://www.w3.org/2000/svg">
<path d="M16 32C24.8366 32 32 24.8366 32 16C32 7.16344 24.8366 0 16 0C7.16344 0 0 7.16344 0 16C0 24.8366 7.16344 32 16 32Z" fill="#26A17B"/>
<path fill-rule="evenodd" clip-rule="evenodd" d="M17.9218 17.383V17.381C17.8118 17.389 17.2448 17.423 15.9798 17.423C14.9698 17.423 14.2588 17.393 14.0088 17.381V17.384C10.1208 17.213 7.2188 16.536 7.2188 15.726C7.2188 14.917 10.1208 14.24 14.0088 14.066V16.71C14.2628 16.728 14.9908 16.771 15.9968 16.771C17.2038 16.771 17.8088 16.721 17.9218 16.711V14.068C21.8018 14.241 24.6968 14.918 24.6968 15.726C24.6968 16.536 21.8018 17.211 17.9218 17.383ZM17.9218 13.793V11.427H23.3358V7.81897H8.5948V11.427H14.0088V13.792C9.6088 13.994 6.2998 14.866 6.2998 15.91C6.2998 16.954 9.6088 17.825 14.0088 18.028V25.61H17.9218V18.026C22.3148 17.824 25.6158 16.953 25.6158 15.91C25.6158 14.867 22.3148 13.996 17.9218 13.793Z" fill="white"/>
</svg>
