<svg width="26" height="26" viewBox="0 0 26 26" fill="none" xmlns="http://www.w3.org/2000/svg">
<path d="M13 25.5C19.9036 25.5 25.5 19.9036 25.5 13C25.5 6.09644 19.9036 0.5 13 0.5C6.09644 0.5 0.5 6.09644 0.5 13C0.5 19.9036 6.09644 25.5 13 25.5Z" fill="#F7931A" stroke="white"/>
<path d="M18.3916 11.515C18.6271 9.943 17.4293 9.09775 15.7928 8.53375L16.3238 6.40375L15.0278 6.08125L14.5103 8.155C14.1698 8.0695 13.8203 7.99 13.4716 7.9105L13.9928 5.82325L12.6968 5.5L12.1658 7.62925C11.8838 7.56475 11.6063 7.50175 11.3378 7.43425L11.3393 7.4275L9.5513 6.98125L9.2063 8.36575C9.2063 8.36575 10.1686 8.58625 10.1483 8.59975C10.6733 8.731 10.7678 9.07825 10.7521 9.35425L10.1476 11.7805C10.1836 11.7895 10.2301 11.803 10.2826 11.8233L10.1453 11.7895L9.2978 15.1885C9.2333 15.3475 9.07055 15.5868 8.70305 15.496C8.71655 15.5148 7.76105 15.2613 7.76105 15.2613L7.11755 16.7448L8.80505 17.1655C9.11855 17.2443 9.42605 17.3268 9.7283 17.404L9.19205 19.558L10.4873 19.8805L11.0183 17.7505C11.3723 17.8458 11.7158 17.9343 12.0518 18.0183L11.5223 20.1393L12.8183 20.4618L13.3546 18.3123C15.5656 18.7308 17.2276 18.562 17.9273 16.5625C18.4913 14.953 17.8996 14.0238 16.7363 13.4185C17.5838 13.2235 18.2213 12.6663 18.3916 11.515ZM15.4291 15.6685C15.0293 17.2788 12.3181 16.408 11.4391 16.1898L12.1516 13.336C13.0306 13.5558 15.8483 13.99 15.4291 15.6685ZM15.8303 11.4918C15.4651 12.9565 13.2091 12.2118 12.4778 12.0295L13.1228 9.442C13.8541 9.62425 16.2113 9.964 15.8303 11.4918Z" fill="white"/>
</svg>
