<svg width="32" height="32" viewBox="0 0 32 32" fill="none" xmlns="http://www.w3.org/2000/svg">
<path d="M22.5739 3H9.42614C5.87708 3 3 5.87708 3 9.42614V22.5739C3 26.1229 5.87708 29 9.42614 29H22.5739C26.1229 29 29 26.1229 29 22.5739V9.42614C29 5.87708 26.1229 3 22.5739 3Z" fill="#17171A"/>
<path fill-rule="evenodd" clip-rule="evenodd" d="M18.2455 6.684C18.2342 6.69769 18.1614 6.81138 18.084 6.93663C17.5914 7.7334 16.9079 8.69466 16.1865 9.60527C16.0292 9.80389 16.0041 9.83231 15.9854 9.83279C15.975 9.83304 15.624 9.38928 15.3661 9.04981C14.8047 8.31067 14.3317 7.63116 13.936 6.99517C13.7804 6.745 13.7535 6.70891 13.7228 6.70891C13.6428 6.70891 12.2094 7.99447 11.324 8.86029C11.1923 8.9891 11.1921 8.98829 11.3794 9.10713C12.3662 9.73339 14.5823 11.4931 14.5135 11.5957C14.3759 11.801 12.074 14.2062 11.7983 14.4328L11.7604 14.464L11.7317 14.4273C11.7159 14.4071 11.5897 14.2473 11.4512 14.0723C10.6701 13.0852 9.94072 12.0467 9.44857 11.2207C9.30996 10.9881 9.30464 10.9816 9.26956 11.0012C9.15676 11.0643 7.14151 13.4713 7.09834 13.5945C7.08848 13.6226 7.10603 13.6395 7.23501 13.7259C7.85409 14.1405 8.58251 14.6866 9.24379 15.232C9.64178 15.5602 10.1024 15.9582 10.1022 15.9737C10.1007 16.0875 8.09987 17.6647 7.22139 18.2446C7.08343 18.3357 7.06532 18.3517 7.06494 18.3829C7.06408 18.4557 9.20185 21.0057 9.26367 21.0057C9.28857 21.0057 9.30842 20.9777 9.43513 20.7638C9.92422 19.938 10.661 18.8903 11.517 17.8034C11.6311 17.6585 11.7362 17.5314 11.7506 17.5209C11.7799 17.4995 11.8508 17.5662 12.561 18.282C13.1665 18.8923 14.474 20.2891 14.5215 20.3765C14.5371 20.4052 14.5089 20.4321 14.0843 20.7948C13.0836 21.6495 12.1467 22.3611 11.3284 22.8876C11.1369 23.0109 11.1343 22.9945 11.3856 23.2431C12.079 23.9289 13.5417 25.2608 13.6699 25.3231C13.7091 25.3422 13.6862 25.3725 13.9243 24.9859C14.3672 24.2671 14.9947 23.3811 15.6968 22.4839C15.8416 22.2988 15.9687 22.1438 15.9791 22.1397C16.0567 22.1086 17.3237 23.8273 17.9447 24.8059C18.0812 25.0211 18.2027 25.2117 18.2145 25.2293C18.2625 25.3009 18.4955 25.1112 19.5901 24.1089C20.7717 23.027 20.806 22.9875 20.6517 22.8873C20.2093 22.6004 19.4943 22.0859 19.0181 21.7122C18.31 21.1566 17.4651 20.4386 17.4651 20.3926C17.4651 20.3184 19.0258 18.6611 19.9341 17.7707C20.0858 17.622 20.21 17.4954 20.21 17.4894C20.21 17.4677 19.5641 16.6933 19.1572 16.2273L18.9423 15.9811L19.1436 15.75C19.422 15.4304 19.7152 15.0843 19.9781 14.7647C20.2487 14.4357 20.1846 14.4398 20.4913 14.732C20.8303 15.0552 21.2586 15.4501 21.5755 15.7322C21.8804 16.0034 21.8749 15.964 21.6375 16.1737C21.2156 16.5465 20.2236 17.4703 20.2236 17.4904C20.2236 17.4949 20.2795 17.5687 20.3481 17.6545C21.2403 18.7721 22.0051 19.8506 22.5271 20.727C22.6971 21.0123 22.684 21.0047 22.7955 20.8829C23.4819 20.1333 24.8954 18.433 24.8958 18.3565C24.8958 18.3417 24.8139 18.2784 24.6748 18.1857C23.8489 17.6351 21.8855 16.0821 21.8855 15.9794C21.8855 15.9225 23.1041 14.9171 23.8316 14.3739C24.1076 14.1678 24.7629 13.7078 24.8715 13.6441C24.9662 13.5884 24.9738 13.605 24.6909 13.2465C24.1503 12.5612 23.2698 11.5206 22.8098 11.0234C22.7103 10.916 22.7266 10.9032 22.5123 11.2573C22.0002 12.1036 21.3626 13.0139 20.604 13.9819C20.3187 14.3459 20.2232 14.4609 20.2101 14.4559C20.1203 14.4214 17.4814 11.6649 17.4477 11.5706C17.4406 11.5506 18.2085 10.8951 18.7183 10.4858C19.4142 9.92725 20.0087 9.49432 20.6933 9.04731C20.7627 9.00198 20.7956 8.97161 20.7956 8.9532C20.7956 8.88718 19.3231 7.53123 18.4696 6.81143C18.2737 6.64622 18.2759 6.64746 18.2455 6.684ZM16.1449 10.0429C16.4467 10.417 17.1139 11.2046 17.3312 11.4435C17.4452 11.5687 17.4565 11.5461 17.1348 11.8349C16.6976 12.2272 16.0137 12.8672 16.0036 12.8933C15.9995 12.9039 16.0142 12.9188 16.4364 13.3351C17.2789 14.1659 18.9295 15.9169 18.9295 15.9799C18.9295 16.0203 17.7543 17.2908 17.0907 17.9678C16.7415 18.3241 16.1108 18.9503 16.0181 19.0327L15.9882 19.0593L15.6922 18.7694C14.913 18.006 14.0497 17.104 13.3192 16.2899L13.0419 15.9809L13.2034 15.8002C14.0156 14.8911 14.9801 13.8826 15.793 13.0925C15.8923 12.996 15.9735 12.9092 15.9735 12.8995C15.9735 12.8719 15.4793 12.4031 14.8674 11.8503C14.7048 11.7034 14.568 11.5768 14.5634 11.569C14.5588 11.5612 14.6463 11.4508 14.7579 11.3237C15.0546 10.9858 15.3964 10.5825 15.7047 10.2066C16.0235 9.81796 15.9773 9.83516 16.1449 10.0429ZM11.9858 14.7407C12.2751 15.0916 12.5644 15.4335 12.8165 15.7224C13.0722 16.0156 13.0663 15.9503 12.8587 16.1889C12.5762 16.5138 12.2767 16.8673 12.0184 17.1808C11.7291 17.5319 11.7993 17.5221 11.5159 17.2515C11.166 16.9175 10.8 16.5794 10.46 16.276C10.0923 15.9478 10.09 16.0165 10.4804 15.6667C10.8349 15.3491 11.304 14.9145 11.5804 14.6476C11.6778 14.5536 11.7622 14.4794 11.7679 14.4829C11.7737 14.4863 11.8718 14.6023 11.9858 14.7407ZM16.1797 19.2433C16.4543 19.5046 16.8904 19.9077 17.1688 20.1578C17.4605 20.4197 17.4482 20.3804 17.2933 20.5577C17.0184 20.8721 16.5222 21.4574 16.2802 21.753C16.1391 21.9251 16.0159 22.071 16.0064 22.0769C15.9815 22.0925 15.952 22.0608 15.6721 21.7174C15.4021 21.3863 14.9733 20.8806 14.7158 20.5897C14.6272 20.4896 14.5567 20.4018 14.5591 20.3947C14.5616 20.3874 14.6862 20.2716 14.8361 20.1371C15.149 19.8564 15.5792 19.458 15.8169 19.2292C16.0139 19.0393 15.9631 19.0373 16.1797 19.2433Z" fill="white"/>
</svg>
