<svg width="24" height="24" viewBox="0 0 24 24" fill="none" xmlns="http://www.w3.org/2000/svg">
<path d="M20.8333 3.19324L13.3281 8.715L14.7238 5.46084L20.8333 3.19324Z" fill="#E17726" stroke="#E17726" stroke-width="0.25" stroke-linecap="round" stroke-linejoin="round"/>
<path d="M3.52185 3.19324L10.9602 8.76653L9.63143 5.46084L3.52185 3.19324Z" fill="#E27625" stroke="#E27625" stroke-width="0.25" stroke-linecap="round" stroke-linejoin="round"/>
<path d="M18.1309 15.9962L16.134 19.0295L20.41 20.2001L21.6349 16.0625L18.1309 15.9962Z" fill="#E27625" stroke="#E27625" stroke-width="0.25" stroke-linecap="round" stroke-linejoin="round"/>
<path d="M2.72729 16.0625L3.94475 20.2001L8.21329 19.0295L6.22377 15.9962L2.72729 16.0625Z" fill="#E27625" stroke="#E27625" stroke-width="0.25" stroke-linecap="round" stroke-linejoin="round"/>
<path d="M7.98315 10.8721L6.79541 12.6538L11.0268 12.8452L10.8858 8.31738L7.98315 10.8721Z" fill="#E27625" stroke="#E27625" stroke-width="0.25" stroke-linecap="round" stroke-linejoin="round"/>
<path d="M16.3716 10.8721L13.4245 8.26587L13.328 12.8453L17.5594 12.6538L16.3716 10.8721Z" fill="#E27625" stroke="#E27625" stroke-width="0.25" stroke-linecap="round" stroke-linejoin="round"/>
<path d="M8.21338 19.0296L10.7745 17.8001L8.56972 16.092L8.21338 19.0296Z" fill="#E27625" stroke="#E27625" stroke-width="0.25" stroke-linecap="round" stroke-linejoin="round"/>
<path d="M13.5806 17.8001L16.1342 19.0296L15.7853 16.092L13.5806 17.8001Z" fill="#E27625" stroke="#E27625" stroke-width="0.25" stroke-linecap="round" stroke-linejoin="round"/>
<path d="M16.1342 19.0297L13.5806 17.8002L13.7884 19.4493L13.7661 20.1488L16.1342 19.0297Z" fill="#D5BFB2" stroke="#D5BFB2" stroke-width="0.25" stroke-linecap="round" stroke-linejoin="round"/>
<path d="M8.21338 19.0297L10.5889 20.1488L10.5741 19.4493L10.7745 17.8002L8.21338 19.0297Z" fill="#D5BFB2" stroke="#D5BFB2" stroke-width="0.25" stroke-linecap="round" stroke-linejoin="round"/>
<path d="M10.6333 15.0023L8.51013 14.3839L10.0097 13.6992L10.6333 15.0023Z" fill="#233447" stroke="#233447" stroke-width="0.25" stroke-linecap="round" stroke-linejoin="round"/>
<path d="M13.7214 15.0023L14.345 13.6992L15.852 14.3839L13.7214 15.0023Z" fill="#233447" stroke="#233447" stroke-width="0.25" stroke-linecap="round" stroke-linejoin="round"/>
<path d="M8.21324 19.0295L8.58444 15.9962L6.22375 16.0625L8.21324 19.0295Z" fill="#CC6228" stroke="#CC6228" stroke-width="0.25" stroke-linecap="round" stroke-linejoin="round"/>
<path d="M15.7703 15.9962L16.134 19.0295L18.1309 16.0625L15.7703 15.9962Z" fill="#CC6228" stroke="#CC6228" stroke-width="0.25" stroke-linecap="round" stroke-linejoin="round"/>
<path d="M17.5594 12.6538L13.328 12.8452L13.7214 15.0024L14.345 13.6993L15.852 14.384L17.5594 12.6538Z" fill="#CC6228" stroke="#CC6228" stroke-width="0.25" stroke-linecap="round" stroke-linejoin="round"/>
<path d="M8.51024 14.384L10.0098 13.6993L10.6334 15.0024L11.0268 12.8452L6.79541 12.6538L8.51024 14.384Z" fill="#CC6228" stroke="#CC6228" stroke-width="0.25" stroke-linecap="round" stroke-linejoin="round"/>
<path d="M6.79578 12.6538L8.57001 16.092L8.51058 14.384L6.79578 12.6538Z" fill="#E27525" stroke="#E27525" stroke-width="0.25" stroke-linecap="round" stroke-linejoin="round"/>
<path d="M15.8521 14.384L15.7853 16.092L17.5595 12.6538L15.8521 14.384Z" fill="#E27525" stroke="#E27525" stroke-width="0.25" stroke-linecap="round" stroke-linejoin="round"/>
<path d="M11.0272 12.8452L10.6337 15.0024L11.131 17.5498L11.2424 14.1925L11.0272 12.8452Z" fill="#E27525" stroke="#E27525" stroke-width="0.25" stroke-linecap="round" stroke-linejoin="round"/>
<path d="M13.3282 12.8452L13.1204 14.1852L13.2243 17.5498L13.7217 15.0024L13.3282 12.8452Z" fill="#E27525" stroke="#E27525" stroke-width="0.25" stroke-linecap="round" stroke-linejoin="round"/>
<path d="M13.7216 15.0025L13.2242 17.5498L13.5806 17.8002L15.7854 16.0921L15.8522 14.384L13.7216 15.0025Z" fill="#F5841F" stroke="#F5841F" stroke-width="0.25" stroke-linecap="round" stroke-linejoin="round"/>
<path d="M8.51013 14.384L8.56956 16.0921L10.7743 17.8002L11.1306 17.5498L10.6333 15.0025L8.51013 14.384Z" fill="#F5841F" stroke="#F5841F" stroke-width="0.25" stroke-linecap="round" stroke-linejoin="round"/>
<path d="M13.7662 20.1488L13.7884 19.4493L13.5954 19.2873H10.7597L10.5741 19.4493L10.5889 20.1488L8.21338 19.0297L9.04481 19.707L10.73 20.8629H13.6177L15.3102 19.707L16.1342 19.0297L13.7662 20.1488Z" fill="#C0AC9D" stroke="#C0AC9D" stroke-width="0.25" stroke-linecap="round" stroke-linejoin="round"/>
<path d="M13.5805 17.8001L13.2241 17.5498H11.1307L10.7744 17.8001L10.574 19.4493L10.7596 19.2873H13.5953L13.7884 19.4493L13.5805 17.8001Z" fill="#161616" stroke="#161616" stroke-width="0.25" stroke-linecap="round" stroke-linejoin="round"/>
<path d="M21.1525 9.07574L21.7835 6.02774L20.8333 3.19324L13.5806 8.53096L16.3718 10.8722L20.3137 12.0134L21.1822 11.0047L20.8037 10.7323L21.4049 10.1875L20.9447 9.83409L21.546 9.37761L21.1525 9.07574Z" fill="#763E1A" stroke="#763E1A" stroke-width="0.25" stroke-linecap="round" stroke-linejoin="round"/>
<path d="M2.57141 6.02774L3.20983 9.07574L2.80154 9.37761L3.41027 9.83409L2.95001 10.1875L3.55131 10.7323L3.17271 11.0047L4.04127 12.0134L7.98318 10.8722L10.7744 8.53096L3.52162 3.19324L2.57141 6.02774Z" fill="#763E1A" stroke="#763E1A" stroke-width="0.25" stroke-linecap="round" stroke-linejoin="round"/>
<path d="M20.3136 12.0132L16.3717 10.8721L17.5595 12.6538L15.7853 16.092L18.1311 16.0625H21.635L20.3136 12.0132Z" fill="#F5841F" stroke="#F5841F" stroke-width="0.25" stroke-linecap="round" stroke-linejoin="round"/>
<path d="M7.98312 10.8721L4.04125 12.0132L2.72729 16.0625H6.22377L8.56958 16.092L6.79538 12.6538L7.98312 10.8721Z" fill="#F5841F" stroke="#F5841F" stroke-width="0.25" stroke-linecap="round" stroke-linejoin="round"/>
<path d="M13.328 12.8453L13.5804 8.53089L14.7236 5.46082H9.6311L10.7743 8.53089L11.0267 12.8453L11.1232 14.1999L11.1306 17.5498H13.2241L13.2315 14.1999L13.328 12.8453Z" fill="#F5841F" stroke="#F5841F" stroke-width="0.25" stroke-linecap="round" stroke-linejoin="round"/>
</svg>
