<svg width="24" height="24" viewBox="0 0 24 24" fill="none" xmlns="http://www.w3.org/2000/svg">
<path d="M22.6 1.43182L13.5938 8.05794L15.2685 4.15295L22.6 1.43182Z" fill="#E17726" stroke="#E17726" stroke-width="0.25" stroke-linecap="round" stroke-linejoin="round"/>
<path d="M1.82617 1.43182L10.7522 8.11978L9.15766 4.15295L1.82617 1.43182Z" fill="#E27625" stroke="#E27625" stroke-width="0.25" stroke-linecap="round" stroke-linejoin="round"/>
<path d="M19.3572 16.7955L16.9609 20.4354L22.0921 21.8402L23.562 16.875L19.3572 16.7955Z" fill="#E27625" stroke="#E27625" stroke-width="0.25" stroke-linecap="round" stroke-linejoin="round"/>
<path d="M0.872559 16.875L2.3335 21.8402L7.45575 20.4354L5.06833 16.7955L0.872559 16.875Z" fill="#E27625" stroke="#E27625" stroke-width="0.25" stroke-linecap="round" stroke-linejoin="round"/>
<path d="M7.17969 10.6465L5.75439 12.7845L10.8321 13.0142L10.6628 7.58084L7.17969 10.6465Z" fill="#E27625" stroke="#E27625" stroke-width="0.25" stroke-linecap="round" stroke-linejoin="round"/>
<path d="M17.2458 10.6466L13.7093 7.5191L13.5935 13.0144L18.6712 12.7847L17.2458 10.6466Z" fill="#E27625" stroke="#E27625" stroke-width="0.25" stroke-linecap="round" stroke-linejoin="round"/>
<path d="M7.45605 20.4355L10.5294 18.9601L7.88367 16.9104L7.45605 20.4355Z" fill="#E27625" stroke="#E27625" stroke-width="0.25" stroke-linecap="round" stroke-linejoin="round"/>
<path d="M13.8965 18.9601L16.9609 20.4355L16.5422 16.9104L13.8965 18.9601Z" fill="#E27625" stroke="#E27625" stroke-width="0.25" stroke-linecap="round" stroke-linejoin="round"/>
<path d="M16.9609 20.4356L13.8965 18.9602L14.1459 20.9392L14.1191 21.7785L16.9609 20.4356Z" fill="#D5BFB2" stroke="#D5BFB2" stroke-width="0.25" stroke-linecap="round" stroke-linejoin="round"/>
<path d="M7.45605 20.4356L10.3067 21.7785L10.2889 20.9392L10.5294 18.9602L7.45605 20.4356Z" fill="#D5BFB2" stroke="#D5BFB2" stroke-width="0.25" stroke-linecap="round" stroke-linejoin="round"/>
<path d="M10.36 15.6029L7.81226 14.8608L9.61171 14.0391L10.36 15.6029Z" fill="#233447" stroke="#233447" stroke-width="0.25" stroke-linecap="round" stroke-linejoin="round"/>
<path d="M14.0659 15.6029L14.8142 14.0391L16.6226 14.8608L14.0659 15.6029Z" fill="#233447" stroke="#233447" stroke-width="0.25" stroke-linecap="round" stroke-linejoin="round"/>
<path d="M7.45599 20.4354L7.90143 16.7955L5.0686 16.875L7.45599 20.4354Z" fill="#CC6228" stroke="#CC6228" stroke-width="0.25" stroke-linecap="round" stroke-linejoin="round"/>
<path d="M16.5244 16.7955L16.9609 20.4354L19.3572 16.875L16.5244 16.7955Z" fill="#CC6228" stroke="#CC6228" stroke-width="0.25" stroke-linecap="round" stroke-linejoin="round"/>
<path d="M18.6712 12.7845L13.5935 13.0142L14.0656 15.6029L14.8139 14.0391L16.6223 14.8607L18.6712 12.7845Z" fill="#CC6228" stroke="#CC6228" stroke-width="0.25" stroke-linecap="round" stroke-linejoin="round"/>
<path d="M7.81219 14.8607L9.61164 14.0391L10.36 15.6029L10.8321 13.0142L5.75439 12.7845L7.81219 14.8607Z" fill="#CC6228" stroke="#CC6228" stroke-width="0.25" stroke-linecap="round" stroke-linejoin="round"/>
<path d="M5.75488 12.7845L7.88396 16.9104L7.81265 14.8608L5.75488 12.7845Z" fill="#E27525" stroke="#E27525" stroke-width="0.25" stroke-linecap="round" stroke-linejoin="round"/>
<path d="M16.6224 14.8607L16.5422 16.9104L18.6713 12.7845L16.6224 14.8607Z" fill="#E27525" stroke="#E27525" stroke-width="0.25" stroke-linecap="round" stroke-linejoin="round"/>
<path d="M10.8325 13.0142L10.3604 15.6029L10.9572 18.6597L11.0908 14.631L10.8325 13.0142Z" fill="#E27525" stroke="#E27525" stroke-width="0.25" stroke-linecap="round" stroke-linejoin="round"/>
<path d="M13.5937 13.0142L13.3442 14.6222L13.469 18.6597L14.0658 15.6029L13.5937 13.0142Z" fill="#E27525" stroke="#E27525" stroke-width="0.25" stroke-linecap="round" stroke-linejoin="round"/>
<path d="M14.0658 15.6029L13.469 18.6597L13.8966 18.9601L16.5424 16.9105L16.6225 14.8608L14.0658 15.6029Z" fill="#F5841F" stroke="#F5841F" stroke-width="0.25" stroke-linecap="round" stroke-linejoin="round"/>
<path d="M7.81226 14.8608L7.88357 16.9105L10.5293 18.9601L10.9569 18.6597L10.36 15.6029L7.81226 14.8608Z" fill="#F5841F" stroke="#F5841F" stroke-width="0.25" stroke-linecap="round" stroke-linejoin="round"/>
<path d="M14.1194 21.7785L14.1461 20.9391L13.9145 20.7448H10.5116L10.2889 20.9391L10.3067 21.7785L7.45605 20.4355L8.45377 21.2483L10.4759 22.6354H13.9412L15.9723 21.2483L16.9611 20.4355L14.1194 21.7785Z" fill="#C0AC9D" stroke="#C0AC9D" stroke-width="0.25" stroke-linecap="round" stroke-linejoin="round"/>
<path d="M13.8964 18.9601L13.4688 18.6597H10.9567L10.5291 18.9601L10.2886 20.9391L10.5113 20.7447H13.9142L14.1459 20.9391L13.8964 18.9601Z" fill="#161616" stroke="#161616" stroke-width="0.25" stroke-linecap="round" stroke-linejoin="round"/>
<path d="M22.9828 8.49082L23.7401 4.83323L22.5998 1.43182L13.8965 7.8371L17.2459 10.6465L21.9762 12.016L23.0185 10.8056L22.5642 10.4787L23.2857 9.82494L22.7334 9.40085L23.455 8.85307L22.9828 8.49082Z" fill="#763E1A" stroke="#763E1A" stroke-width="0.25" stroke-linecap="round" stroke-linejoin="round"/>
<path d="M0.685791 4.83323L1.4519 8.49082L0.961949 8.85307L1.69242 9.40085L1.14011 9.82494L1.86167 10.4787L1.40735 10.8056L2.44962 12.016L7.17992 10.6465L10.5294 7.8371L1.82604 1.43182L0.685791 4.83323Z" fill="#763E1A" stroke="#763E1A" stroke-width="0.25" stroke-linecap="round" stroke-linejoin="round"/>
<path d="M21.9762 12.0159L17.246 10.6465L18.6713 12.7846L16.5422 16.9104L19.3572 16.8751H23.5619L21.9762 12.0159Z" fill="#F5841F" stroke="#F5841F" stroke-width="0.25" stroke-linecap="round" stroke-linejoin="round"/>
<path d="M7.17955 10.6465L2.44931 12.0159L0.872559 16.8751H5.06833L7.8833 16.9104L5.75426 12.7846L7.17955 10.6465Z" fill="#F5841F" stroke="#F5841F" stroke-width="0.25" stroke-linecap="round" stroke-linejoin="round"/>
<path d="M13.5935 13.0143L13.8964 7.83701L15.2682 4.15292H9.15723L10.5291 7.83701L10.8319 13.0143L10.9478 14.6399L10.9567 18.6597H13.4688L13.4777 14.6399L13.5935 13.0143Z" fill="#F5841F" stroke="#F5841F" stroke-width="0.25" stroke-linecap="round" stroke-linejoin="round"/>
</svg>
