<svg width="16" height="16" viewBox="0 0 40 50" fill="white">
<path xmlns="http://www.w3.org/2000/svg" d="M20.814 49.298s3.074 0 5.136-2.17c2.399-2.355 1.319-5.095 4.718-7.943 3.252-2.697 7.35-.779 7.35-.779 2.829-5.848 1.289-12.651 1.289-12.651 4.816-13.038.81-22.367-.24-25.07-3.448 4.97-7.767 8.412-12.872 10.716-1.773-.5-3.59-.766-5.381-.747-1.785-.019-3.608.247-5.381.747C10.334 9.09 6.009 5.654 2.56.686c-1.049 2.702-5.055 12.031-.239 25.069 0 0-1.54 6.803 1.289 12.651 0 0 4.098-1.917 7.35.779 3.405 2.848 2.32 5.588 4.718 7.942 2.062 2.171 5.136 2.171 5.136 2.171Z" fill="#F7F7F7"/>
<path xmlns="http://www.w3.org/2000/svg" d="M17.004 34.818c-.13-4.33-4.265-5.722-7.087-3.899 0 0 .442 1.86 2.503 2.797 1.681.766 2.405-.26 4.584 1.102ZM3.21 4.768c-1.662 6.02-.944 13.633 1.682 19.177 2.687-1.962 5.51-4.994 7.013-8.202-3.54-2.703-6.51-5.272-8.694-10.975Zm21.414 30.05c.13-4.33 4.265-5.722 7.087-3.899 0 0-.442 1.86-2.503 2.797-1.682.766-2.406-.26-4.584 1.102Zm13.793-30.05c1.663 6.02.945 13.633-1.681 19.177-2.687-1.962-5.51-4.994-7.013-8.202 3.54-2.703 6.51-5.272 8.694-10.975ZM20.814 49.065c1.477 0 2.675-1.089 2.675-2.43 0-1.343-1.198-2.431-2.675-2.431-1.477 0-2.675 1.088-2.675 2.43s1.198 2.43 2.675 2.43Z" fill="#202137"/>
</svg>