<svg width="24" height="25" viewBox="0 0 24 25" fill="none" xmlns="http://www.w3.org/2000/svg">
<path d="M12 0C5.37209 0 0 5.42816 0 12.1226C0 18.817 5.37209 24.2451 12 24.2451C18.628 24.2451 24 18.817 24 12.1226C24 5.42816 18.628 0 12 0V0ZM18.8053 11.5237C18.7481 11.8544 18.4351 12.1226 18.1078 12.1226H12L11.2858 16.2183C11.2286 16.549 10.9155 16.8171 10.5882 16.8171H5.07331C4.74596 16.8171 4.52694 16.549 4.58526 16.2183L5.19591 12.7214C5.25305 12.3907 5.56612 12.1226 5.89346 12.1226H12.0012L12.7154 8.02675C12.7725 7.69605 13.0856 7.42795 13.4129 7.42795H18.9279C19.2553 7.42795 19.4743 7.69605 19.4159 8.02675L18.8053 11.5237Z" fill="black"/>
</svg>
