<svg xmlns="http://www.w3.org/2000/svg" fill="none" viewBox="0 0 450 300">
    <path
        d="m126.668 93.9842c62.65-61.3123 164.224-61.3123 226.874 0l7.54 7.3788c3.132 3.066 3.132 8.036 0 11.102l-25.793 25.242c-1.566 1.533-4.105 1.533-5.672 0l-10.376-10.154c-43.705-42.7734-114.567-42.7734-158.272 0l-11.112 10.874c-1.566 1.533-4.106 1.533-5.672 0l-25.793-25.242c-3.132-3.066-3.132-8.036 0-11.102zm280.216 52.2038 22.955 22.465c3.133 3.066 3.133 8.036 0 11.102l-103.508 101.301c-3.132 3.065-8.211 3.065-11.344 0l-73.464-71.896c-.783-.767-2.052-.767-2.835 0l-73.463 71.896c-3.132 3.065-8.211 3.065-11.343 0l-103.5116-101.302c-3.1325-3.066-3.1325-8.036 0-11.102l22.9556-22.465c3.1324-3.066 8.2112-3.066 11.3437 0l73.4653 71.896c.783.767 2.052.767 2.835 0l73.462-71.896c3.132-3.066 8.211-3.066 11.343-.001l73.465 71.897c.784.767 2.053.767 2.836 0l73.464-71.895c3.132-3.066 8.211-3.066 11.344 0z"
        fill="#3396ff" />
</svg>