<svg viewBox="0 0 32 32" fill="none" xmlns="http://www.w3.org/2000/svg">
<rect width="32" height="32" rx="16" fill="white"/>
<path d="M23.65 11.3767H21.175C20.9 11.3767 20.625 11.2518 20.425 11.0521L19.425 9.9285C19.125 9.60392 18.65 9.57895 18.3 9.8536L18.225 9.9285L17.375 10.9023C17.1 11.2268 16.675 11.4016 16.25 11.4016H2.725C2.35 12.5002 2.1 13.6737 2 14.8472H14.8C15.025 14.8472 15.25 14.7473 15.4 14.5975L16.6 13.3491C16.75 13.1993 16.95 13.0994 17.175 13.0994H17.225C17.45 13.0994 17.675 13.1993 17.825 13.3741L18.825 14.4977C19.025 14.7224 19.3 14.8472 19.575 14.8472H30C29.9 13.6737 29.65 12.5002 29.275 11.4016H23.65V11.3767ZM15.45 18.2678L14.45 17.1443C14.15 16.8197 13.675 16.7947 13.325 17.0694L13.25 17.1443L12.375 18.118C12.1 18.4426 11.7 18.6174 11.275 18.6174H2.2C2.425 19.8159 2.825 20.9894 3.35 22.1129H9.725C9.95 22.1129 10.15 22.013 10.325 21.8632L11.525 20.6148C11.675 20.465 11.875 20.3652 12.1 20.3652H12.15C12.375 20.3652 12.6 20.465 12.75 20.6398L13.75 21.7634C13.95 21.9881 14.225 22.1129 14.5 22.1129H28.65C29.175 21.0143 29.575 19.8408 29.8 18.6174H16.2C15.9 18.6174 15.625 18.4926 15.45 18.2678ZM20.35 7.38176L21.55 6.13335C21.7 5.98355 21.9 5.88367 22.125 5.88367H22.175C22.4 5.88367 22.625 5.98355 22.775 6.13335L23.775 7.25692C23.975 7.48163 24.25 7.5815 24.525 7.5815H27.225C22.525 1.38942 13.7 0.165984 7.475 4.83501C6.45 5.60902 5.525 6.53284 4.725 7.5815H19.75C20 7.63144 20.2 7.53157 20.35 7.38176ZM10.675 25.5585C10.375 25.5585 10.1 25.4337 9.925 25.2339L8.925 24.1104C8.625 23.7858 8.125 23.7608 7.8 24.0604L7.75 24.1104L6.875 25.0841C6.6 25.4087 6.2 25.5835 5.775 25.5835H5.725C11 31.2263 19.925 31.5009 25.6 26.1827C25.825 25.983 26.025 25.7583 26.25 25.5335H10.675V25.5585Z" fill="#434343"/>
</svg>
