<svg width="32" height="32" viewBox="0 0 32 32" fill="none" xmlns="http://www.w3.org/2000/svg">
<path d="M22.0107 12.3674H20.0661C19.85 12.3674 19.6339 12.2693 19.4768 12.1123L18.6911 11.2295C18.4554 10.9745 18.0821 10.9549 17.8071 11.1707L17.7482 11.2295L17.0804 11.9946C16.8643 12.2497 16.5304 12.387 16.1964 12.387H5.56964C5.275 13.2502 5.07857 14.1722 5 15.0942H15.0571C15.2339 15.0942 15.4107 15.0158 15.5286 14.8981L16.4714 13.9172C16.5893 13.7995 16.7464 13.721 16.9232 13.721H16.9625C17.1393 13.721 17.3161 13.7995 17.4339 13.9368L18.2196 14.8196C18.3768 14.9961 18.5929 15.0942 18.8089 15.0942H27C26.9214 14.1722 26.725 13.2502 26.4304 12.387H22.0107V12.3674ZM15.5679 17.7819L14.7821 16.8991C14.5464 16.644 14.1732 16.6244 13.8982 16.8402L13.8393 16.8991L13.1518 17.6642C12.9357 17.9192 12.6214 18.0565 12.2875 18.0565H5.15714C5.33393 18.9982 5.64821 19.9202 6.06071 20.803H11.0696C11.2464 20.803 11.4036 20.7245 11.5411 20.6068L12.4839 19.6259C12.6018 19.5082 12.7589 19.4298 12.9357 19.4298H12.975C13.1518 19.4298 13.3286 19.5082 13.4464 19.6456L14.2321 20.5284C14.3893 20.7049 14.6054 20.803 14.8214 20.803H25.9393C26.3518 19.9398 26.6661 19.0178 26.8429 18.0565H16.1571C15.9214 18.0565 15.7054 17.9584 15.5679 17.7819ZM19.4179 9.22852L20.3607 8.24764C20.4786 8.12993 20.6357 8.05146 20.8125 8.05146H20.8518C21.0286 8.05146 21.2054 8.12993 21.3232 8.24764L22.1089 9.13044C22.2661 9.307 22.4821 9.38547 22.6982 9.38547H24.8196C21.1268 4.52026 14.1929 3.55899 9.30179 7.22751C8.49643 7.83566 7.76964 8.56152 7.14107 9.38547H18.9464C19.1429 9.4247 19.3 9.34623 19.4179 9.22852ZM11.8161 23.5103C11.5804 23.5103 11.3643 23.4122 11.2268 23.2552L10.4411 22.3724C10.2054 22.1174 9.8125 22.0978 9.55714 22.3332L9.51786 22.3724L8.83036 23.1375C8.61429 23.3926 8.3 23.5299 7.96607 23.5299H7.92679C12.0714 27.9635 19.0839 28.1793 23.5429 24.0007C23.7196 23.8438 23.8768 23.6672 24.0536 23.4906H11.8161V23.5103Z" fill="white"/>
</svg>
